<?xml version="1.0" encoding="UTF-8" standalone="no"?>
<!DOCTYPE svg PUBLIC "-//W3C//DTD SVG 1.1//EN" "http://www.w3.org/Graphics/SVG/1.1/DTD/svg11.dtd">
<svg width="100%" height="100%" viewBox="0 0 2038 2002" version="1.1" xmlns="http://www.w3.org/2000/svg" xmlns:xlink="http://www.w3.org/1999/xlink" xml:space="preserve" xmlns:serif="http://www.serif.com/" style="fill-rule:evenodd;clip-rule:evenodd;stroke-linejoin:round;stroke-miterlimit:1.41421;">
    <g transform="matrix(1,0,0,1,-7,0)">
        <g id="画板1" transform="matrix(0.745717,0,0,0.977226,7.50934,0)">
            <rect x="0" y="0" width="2732" height="2048" style="fill:none;"/>
            <g id="外环" transform="matrix(5.04606,0,0,3.77187,-7373.36,-2584.96)">
                <path d="M1724.27,1190.61C1724.27,1191.7 1724.69,1192.74 1725.45,1193.51C1726.21,1194.27 1727.24,1194.69 1728.31,1194.68C1749.57,1194.32 1770.15,1191.19 1789.71,1185.63C1889.73,1157.18 1962.98,1065.14 1962.98,956C1962.98,825.514 1858.28,719.481 1728.31,717.324C1727.24,717.309 1726.21,717.731 1725.45,718.496C1724.7,719.26 1724.27,720.303 1724.27,721.392C1724.27,726.311 1724.27,734.506 1724.27,739.395C1724.27,741.619 1726.02,743.431 1728.19,743.464C1843.78,745.557 1936.84,839.911 1936.84,956C1936.84,1006.42 1919.29,1052.74 1889.96,1089.18C1851.76,1136.64 1793.58,1167.35 1728.2,1168.54C1726.02,1168.57 1724.27,1170.38 1724.27,1172.6C1724.27,1177.49 1724.27,1185.69 1724.27,1190.61Z"/>
            </g>
            <g id="中环" transform="matrix(4.20406,0,0,3.14248,-5921.51,-1983.26)">
                <path d="M1724.27,1189.78C1724.27,1191.09 1724.78,1192.34 1725.7,1193.26C1726.61,1194.18 1727.85,1194.68 1729.13,1194.66C1858.72,1192.07 1962.98,1086.21 1962.98,956C1962.98,825.789 1858.72,719.929 1729.13,717.339C1727.85,717.317 1726.61,717.822 1725.7,718.74C1724.78,719.658 1724.27,720.912 1724.27,722.221C1724.27,728.981 1724.27,741.053 1724.27,747.76C1724.27,750.421 1726.36,752.593 1728.96,752.643C1839.13,755.136 1927.68,845.228 1927.68,956C1927.68,1066.77 1839.13,1156.86 1728.96,1159.36C1726.36,1159.41 1724.27,1161.58 1724.27,1164.24C1724.27,1170.95 1724.27,1183.02 1724.27,1189.78Z"/>
            </g>
            <g id="内环" transform="matrix(3.29977,0,0,2.46654,-4362.28,-1337.06)">
                <path d="M1724.27,1188.41C1724.27,1190.09 1724.93,1191.69 1726.1,1192.86C1727.27,1194.03 1728.86,1194.67 1730.49,1194.63C1859.45,1191.33 1962.98,1085.75 1962.98,956C1962.98,826.246 1859.45,720.672 1730.49,717.37C1728.86,717.334 1727.27,717.973 1726.1,719.143C1724.93,720.313 1724.27,721.915 1724.27,723.588C1724.27,731.004 1724.27,743.239 1724.27,750.58C1724.27,753.947 1726.89,756.703 1730.19,756.8C1833.99,759.976 1824.85,847.946 1824.85,956C1824.85,1064.05 1833.99,1152.02 1730.19,1155.21C1726.89,1155.3 1724.27,1158.06 1724.27,1161.42C1724.27,1168.76 1724.27,1181 1724.27,1188.41Z"/>
            </g>
            <g id="内线" transform="matrix(4.71963,0,0,3.60153,-4081.29,-2422.11)">
                <path d="M1123,998.581L1123,1206C1115.59,1206 1108.25,1205.69 1101,1205.08L1101,998.581L1123,998.581ZM1123,913.893L1101,913.893L1101,706.918C1108.25,706.31 1115.59,706 1123,706L1123,913.893Z"/>
            </g>
            <g id="中线" transform="matrix(4.71963,0,0,3.60153,-4081.29,-2422.11)">
                <path d="M1085,998.581L1085,1203.24C1077.56,1202.15 1070.22,1200.75 1063,1199.04L1063,998.581L1085,998.581ZM1085,913.893L1063,913.893L1063,712.96C1070.22,711.253 1077.56,709.848 1085,708.758L1085,913.893Z"/>
            </g>
            <g id="外线" transform="matrix(4.71963,0,0,3.60153,-4081.29,-2422.11)">
                <path d="M1047,998.581L1047,1194.71C1039.51,1192.42 1032.17,1189.81 1025,1186.88L1025,998.581L1047,998.581ZM1047,913.893L1025,913.893L1025,725.123C1032.17,722.195 1039.51,719.578 1047,717.29L1047,913.893Z"/>
            </g>
            <g transform="matrix(6.24455,0,0,3.20441,-4950.33,-2030.9)">
                <path d="M1004.28,932.395C1004.28,932.395 906.646,932.395 891.773,932.395C890.729,932.395 889.883,933.654 889.883,935.206C889.883,942.625 889.883,962.674 889.883,970.093C889.883,971.645 890.729,972.903 891.773,972.903C906.646,972.903 1004.28,972.903 1004.28,972.903L1004.28,932.395Z" style="fill:rgb(252,227,0);"/>
            </g>
        </g>
    </g>
</svg>
