<?xml version="1.0" encoding="UTF-8"?>
<svg width="1776px" height="474px" viewBox="0 0 1776 474" version="1.1" xmlns="http://www.w3.org/2000/svg" xmlns:xlink="http://www.w3.org/1999/xlink">
    <!-- Generator: Sketch 48.1 (47250) - http://www.bohemiancoding.com/sketch -->
    <title>Brand-Light</title>
    <desc>Created with Sketch.</desc>
    <defs>
        <linearGradient x1="75.6072136%" y1="87.42989%" x2="22.2816532%" y2="17.5204958%" id="linearGradient-1">
            <stop stop-color="#FFD474" offset="0%"></stop>
            <stop stop-color="#FFA940" offset="100%"></stop>
        </linearGradient>
        <linearGradient x1="1.72254642e-14%" y1="0%" x2="100%" y2="100%" id="linearGradient-2">
            <stop stop-color="#69C0FF" offset="0%"></stop>
            <stop stop-color="#0050B3" offset="100%"></stop>
        </linearGradient>
    </defs>
    <g id="Brand" stroke="none" stroke-width="1" fill="none" fill-rule="evenodd">
        <g id="Brand-Light">
            <path d="M71.288,158.568 L153.72,158.568 L153.72,188.264 L71.288,188.264 L71.288,339.304 L154.744,339.304 C170.445412,339.304 185.207931,338.365343 199.032,336.488 C212.856069,334.610657 226.935928,329.917371 241.272,322.408 C253.560061,316.263969 263.629294,307.901386 271.48,297.32 C279.330706,286.738614 285.559977,275.218729 290.168,262.76 C294.776023,250.301271 298.018657,237.245402 299.896,223.592 C301.773343,209.938598 302.712,196.797396 302.712,184.168 C302.712,170.855933 301.858675,157.288069 300.152,143.464 C298.445325,129.639931 295.202691,116.498729 290.424,104.04 C285.645309,91.581271 279.160041,80.1467187 270.968,69.736 C262.775959,59.3252813 252.194732,50.7067008 239.224,43.88 C228.301279,38.0773043 215.330742,34.3226752 200.312,32.616 C185.293258,30.9093248 170.104077,30.056 154.744,30.056 L71.288,30.056 L71.288,158.568 Z M36.472,0.36 L162.424,0.36 C172.664051,0.36 182.733284,0.61599744 192.632,1.128 C202.530716,1.64000256 212.258619,2.83465728 221.816,4.712 C231.373381,6.58934272 240.674621,9.40531456 249.72,13.16 C258.765379,16.9146854 267.554624,21.8639693 276.088,28.008 C288.376061,36.882711 298.445294,47.719936 306.296,60.52 C314.146706,73.320064 320.375977,86.8025958 324.984,100.968 C329.592023,115.133404 332.834657,129.469261 334.712,143.976 C336.589343,158.482739 337.528,171.879939 337.528,184.168 C337.528,196.456061 336.760008,208.914604 335.224,221.544 C333.687992,234.173396 331.21335,246.546606 327.8,258.664 C324.38665,270.781394 319.864028,282.386611 314.232,293.48 C308.599972,304.573389 301.517376,314.727954 292.984,323.944 C284.450624,333.501381 275.149384,341.181304 265.08,346.984 C255.010616,352.786696 244.429389,357.309317 233.336,360.552 C222.242611,363.794683 210.722726,366.013327 198.776,367.208 C186.829274,368.402673 174.712061,369 162.424,369 L36.472,369 L36.472,188.264 L0.12,188.264 L0.12,158.568 L36.472,158.568 L36.472,0.36 Z M575.096,229.736 C562.125268,235.197361 548.984067,238.781325 535.672,240.488 C522.359933,242.194675 509.048067,243.559995 495.736,244.584 C472.183882,246.290675 453.837399,251.581289 440.696,260.456 C427.554601,269.330711 420.984,282.813243 420.984,300.904 C420.984,309.096041 422.605317,316.178637 425.848,322.152 C429.090683,328.125363 433.357307,333.074647 438.648,337 C443.938693,340.925353 450.082632,343.826657 457.08,345.704 C464.077368,347.581343 471.159964,348.52 478.328,348.52 C490.616061,348.52 502.562609,346.984015 514.168,343.912 C525.773391,340.839985 536.098621,336.146698 545.144,329.832 C554.189379,323.517302 561.442639,315.496049 566.904,305.768 C572.365361,296.039951 575.096,284.520067 575.096,271.208 L575.096,229.736 Z M523.384,214.376 C529.186696,213.69333 536.098627,212.66934 544.12,211.304 C552.141373,209.93866 558.711974,208.061345 563.832,205.672 C568.952026,203.282655 572.109327,199.272028 573.304,193.64 C574.498673,188.007972 575.096,182.802691 575.096,178.024 C575.096,162.322588 570.061384,149.437384 559.992,139.368 C549.922616,129.298616 532.941453,124.264 509.048,124.264 C498.466614,124.264 488.738711,125.202657 479.864,127.08 C470.989289,128.957343 463.224033,132.199977 456.568,136.808 C449.911967,141.416023 444.450688,147.559962 440.184,155.24 C435.917312,162.920038 433.10134,172.562609 431.736,184.168 L400.504,184.168 C401.528005,168.466588 405.111969,155.069389 411.256,143.976 C417.400031,132.882611 425.335951,123.837368 435.064,116.84 C444.792049,109.842632 456.055936,104.722683 468.856,101.48 C481.656064,98.2373171 495.223928,96.616 509.56,96.616 C522.872067,96.616 535.415941,98.0666522 547.192,100.968 C558.968059,103.869348 569.207956,108.477302 577.912,114.792 C586.616044,121.106698 593.442642,129.554614 598.392,140.136 C603.341358,150.717386 605.816,163.687923 605.816,179.048 L605.816,323.432 C605.816,335.378726 607.949312,342.973317 612.216,346.216 C616.482688,349.458683 625.101268,348.690691 638.072,343.912 L638.072,367.976 C635.682655,368.65867 632.184023,369.68266 627.576,371.048 C622.967977,372.41334 618.445356,373.096 614.008,373.096 C609.229309,373.096 604.621356,372.584005 600.184,371.56 C595.063974,370.87733 590.968015,369.256013 587.896,366.696 C584.823985,364.135987 582.349343,361.064018 580.472,357.48 C578.594657,353.895982 577.31467,349.970688 576.632,345.704 C575.94933,341.437312 575.608,336.914691 575.608,332.136 C562.637268,346.472072 547.789417,357.394629 531.064,364.904 C514.338583,372.413371 496.248097,376.168 476.792,376.168 C465.186609,376.168 454.008054,374.632015 443.256,371.56 C432.503946,368.487985 423.032041,363.709366 414.84,357.224 C406.647959,350.738634 400.162691,342.802714 395.384,333.416 C390.605309,324.029286 388.216,312.850732 388.216,299.88 C388.216,254.823775 419.106358,228.200041 480.888,220.008 L523.384,214.376 Z M704.12,286.056 C708.898691,308.925448 717.517271,325.053286 729.976,334.44 C742.434729,343.826714 760.269217,348.52 783.48,348.52 C794.744056,348.52 804.471959,347.15468 812.664,344.424 C820.856041,341.69332 827.597307,338.024023 832.888,333.416 C838.178693,328.807977 842.18932,323.602696 844.92,317.8 C847.65068,311.997304 849.016,305.853366 849.016,299.368 C849.016,286.397268 844.834708,276.754698 836.472,270.44 C828.109292,264.125302 817.613396,259.176018 804.984,255.592 C792.354604,252.007982 778.701407,248.936013 764.024,246.376 C749.346593,243.815987 735.693396,239.976026 723.064,234.856 C710.434604,229.735974 699.938708,222.397381 691.576,212.84 C683.213292,203.282619 679.032,189.800087 679.032,172.392 C679.032,150.205222 687.138586,132.029404 703.352,117.864 C719.565414,103.698596 742.519852,96.616 772.216,96.616 C800.888143,96.616 824.18391,103.015936 842.104,115.816 C860.02409,128.616064 870.861315,150.034516 874.616,180.072 L843.384,180.072 C840.65332,159.591898 832.888064,145.170708 820.088,136.808 C807.287936,128.445292 791.160097,124.264 771.704,124.264 C752.247903,124.264 737.400051,128.445292 727.16,136.808 C716.919949,145.170708 711.8,156.178598 711.8,169.832 C711.8,181.778726 715.981292,190.909302 724.344,197.224 C732.706708,203.538698 743.202604,208.658647 755.832,212.584 C768.461396,216.509353 782.114593,220.007985 796.792,223.08 C811.469407,226.152015 825.122604,230.503972 837.752,236.136 C850.381396,241.768028 860.877292,249.362619 869.24,258.92 C877.602708,268.477381 881.784,281.789248 881.784,298.856 C881.784,311.485396 879.053361,322.663951 873.592,332.392 C868.130639,342.120049 860.621381,350.226634 851.064,356.712 C841.506619,363.197366 830.157399,368.061317 817.016,371.304 C803.874601,374.546683 789.453412,376.168 773.752,376.168 C758.050588,376.168 744.141394,373.864023 732.024,369.256 C719.906606,364.647977 709.581376,358.248041 701.048,350.056 C692.514624,341.863959 685.858691,332.306721 681.08,321.384 C676.301309,310.461279 673.57067,298.685396 672.888,286.056 L704.12,286.056 Z M1147,235.368 C1147,220.349258 1144.95202,206.098734 1140.856,192.616 C1136.75998,179.133266 1130.87204,167.357384 1123.192,157.288 C1115.51196,147.218616 1106.12539,139.197363 1095.032,133.224 C1083.93861,127.250637 1071.39474,124.264 1057.4,124.264 C1041.35725,124.264 1027.53339,127.421302 1015.928,133.736 C1004.32261,140.050698 994.765371,148.669279 987.256,159.592 C979.746629,170.514721 974.28535,183.229261 970.872,197.736 C967.45865,212.242739 966.09333,227.858583 966.776,244.584 C966.776,261.309417 969.079977,276.071936 973.688,288.872 C978.296023,301.672064 984.695959,312.509289 992.888,321.384 C1001.08004,330.258711 1010.63728,336.999977 1021.56,341.608 C1032.48272,346.216023 1044.42927,348.52 1057.4,348.52 C1071.73607,348.52 1084.53594,345.618696 1095.8,339.816 C1107.06406,334.013304 1116.45063,326.077384 1123.96,316.008 C1131.46937,305.938616 1137.18665,293.992069 1141.112,280.168 C1145.03735,266.343931 1147,251.410747 1147,235.368 Z M1147,0.36 L1177.72,0.36 L1177.72,369 L1147,369 L1147,322.408 L1145.976,322.408 C1141.53864,331.282711 1135.82137,339.047967 1128.824,345.704 C1121.82663,352.360033 1114.14671,357.906644 1105.784,362.344 C1097.42129,366.781356 1088.80271,370.194655 1079.928,372.584 C1071.05329,374.973345 1062.34938,376.168 1053.816,376.168 C1032.31189,376.168 1014.05074,372.584036 999.032,365.416 C984.013258,358.247964 971.640049,348.434729 961.912,335.976 C952.183951,323.517271 945.101356,308.754752 940.664,291.688 C936.226644,274.621248 934.008,256.360097 934.008,236.904 C934.008,218.471908 936.397309,200.722752 941.176,183.656 C945.954691,166.589248 953.207951,151.656064 962.936,138.856 C972.664049,126.055936 984.951926,115.816038 999.8,108.136 C1014.64807,100.455962 1032.14123,96.616 1052.28,96.616 C1071.05343,96.616 1089.05858,100.797292 1106.296,109.16 C1123.53342,117.522708 1137.10128,129.895918 1147,146.28 L1147,0.36 Z M1428.6,229.736 C1415.62927,235.197361 1402.48807,238.781325 1389.176,240.488 C1375.86393,242.194675 1362.55207,243.559995 1349.24,244.584 C1325.68788,246.290675 1307.3414,251.581289 1294.2,260.456 C1281.0586,269.330711 1274.488,282.813243 1274.488,300.904 C1274.488,309.096041 1276.10932,316.178637 1279.352,322.152 C1282.59468,328.125363 1286.86131,333.074647 1292.152,337 C1297.44269,340.925353 1303.58663,343.826657 1310.584,345.704 C1317.58137,347.581343 1324.66396,348.52 1331.832,348.52 C1344.12006,348.52 1356.06661,346.984015 1367.672,343.912 C1379.27739,340.839985 1389.60262,336.146698 1398.648,329.832 C1407.69338,323.517302 1414.94664,315.496049 1420.408,305.768 C1425.86936,296.039951 1428.6,284.520067 1428.6,271.208 L1428.6,229.736 Z M1376.888,214.376 C1382.6907,213.69333 1389.60263,212.66934 1397.624,211.304 C1405.64537,209.93866 1412.21597,208.061345 1417.336,205.672 C1422.45603,203.282655 1425.61333,199.272028 1426.808,193.64 C1428.00267,188.007972 1428.6,182.802691 1428.6,178.024 C1428.6,162.322588 1423.56538,149.437384 1413.496,139.368 C1403.42662,129.298616 1386.44545,124.264 1362.552,124.264 C1351.97061,124.264 1342.24271,125.202657 1333.368,127.08 C1324.49329,128.957343 1316.72803,132.199977 1310.072,136.808 C1303.41597,141.416023 1297.95469,147.559962 1293.688,155.24 C1289.42131,162.920038 1286.60534,172.562609 1285.24,184.168 L1254.008,184.168 C1255.03201,168.466588 1258.61597,155.069389 1264.76,143.976 C1270.90403,132.882611 1278.83995,123.837368 1288.568,116.84 C1298.29605,109.842632 1309.55994,104.722683 1322.36,101.48 C1335.16006,98.2373171 1348.72793,96.616 1363.064,96.616 C1376.37607,96.616 1388.91994,98.0666522 1400.696,100.968 C1412.47206,103.869348 1422.71196,108.477302 1431.416,114.792 C1440.12004,121.106698 1446.94664,129.554614 1451.896,140.136 C1456.84536,150.717386 1459.32,163.687923 1459.32,179.048 L1459.32,323.432 C1459.32,335.378726 1461.45331,342.973317 1465.72,346.216 C1469.98669,349.458683 1478.60527,348.690691 1491.576,343.912 L1491.576,367.976 C1489.18665,368.65867 1485.68802,369.68266 1481.08,371.048 C1476.47198,372.41334 1471.94936,373.096 1467.512,373.096 C1462.73331,373.096 1458.12536,372.584005 1453.688,371.56 C1448.56797,370.87733 1444.47202,369.256013 1441.4,366.696 C1438.32798,364.135987 1435.85334,361.064018 1433.976,357.48 C1432.09866,353.895982 1430.81867,349.970688 1430.136,345.704 C1429.45333,341.437312 1429.112,336.914691 1429.112,332.136 C1416.14127,346.472072 1401.29342,357.394629 1384.568,364.904 C1367.84258,372.413371 1349.7521,376.168 1330.296,376.168 C1318.69061,376.168 1307.51205,374.632015 1296.76,371.56 C1286.00795,368.487985 1276.53604,363.709366 1268.344,357.224 C1260.15196,350.738634 1253.66669,342.802714 1248.888,333.416 C1244.10931,324.029286 1241.72,312.850732 1241.72,299.88 C1241.72,254.823775 1272.61036,228.200041 1334.392,220.008 L1376.888,214.376 Z M1744.504,235.368 C1744.504,220.349258 1742.45602,206.098734 1738.36,192.616 C1734.26398,179.133266 1728.37604,167.357384 1720.696,157.288 C1713.01596,147.218616 1703.62939,139.197363 1692.536,133.224 C1681.44261,127.250637 1668.89874,124.264 1654.904,124.264 C1638.86125,124.264 1625.03739,127.421302 1613.432,133.736 C1601.82661,140.050698 1592.26937,148.669279 1584.76,159.592 C1577.25063,170.514721 1571.78935,183.229261 1568.376,197.736 C1564.96265,212.242739 1563.59733,227.858583 1564.28,244.584 C1564.28,261.309417 1566.58398,276.071936 1571.192,288.872 C1575.80002,301.672064 1582.19996,312.509289 1590.392,321.384 C1598.58404,330.258711 1608.14128,336.999977 1619.064,341.608 C1629.98672,346.216023 1641.93327,348.52 1654.904,348.52 C1669.24007,348.52 1682.03994,345.618696 1693.304,339.816 C1704.56806,334.013304 1713.95463,326.077384 1721.464,316.008 C1728.97337,305.938616 1734.69065,293.992069 1738.616,280.168 C1742.54135,266.343931 1744.504,251.410747 1744.504,235.368 Z M1744.504,103.784 L1775.224,103.784 L1775.224,473.448 L1744.504,473.448 L1744.504,326.504 C1734.60528,342.888082 1721.03742,355.261292 1703.8,363.624 C1686.56258,371.986708 1668.55743,376.168 1649.784,376.168 C1629.64523,376.168 1612.15207,372.328038 1597.304,364.648 C1582.45593,356.967962 1570.16805,346.728064 1560.44,333.928 C1550.71195,321.127936 1543.45869,306.194752 1538.68,289.128 C1533.90131,272.061248 1531.512,254.312092 1531.512,235.88 C1531.512,216.423903 1533.73064,198.162752 1538.168,181.096 C1542.60536,164.029248 1549.68795,149.266729 1559.416,136.808 C1569.14405,124.349271 1581.51726,114.536036 1596.536,107.368 C1611.55474,100.199964 1629.81589,96.616 1651.32,96.616 C1659.85338,96.616 1668.55729,97.8106547 1677.432,100.2 C1686.30671,102.589345 1694.92529,106.002644 1703.288,110.44 C1711.65071,114.877356 1719.33063,120.509299 1726.328,127.336 C1733.32537,134.162701 1739.04264,141.842624 1743.48,150.376 L1744.504,150.376 L1744.504,103.784 Z" id="Äasdaq" fill="url(#linearGradient-1)"></path>
            <rect id="Path" fill="url(#linearGradient-2)" x="0" y="157" width="157" height="32"></rect>
        </g>
    </g>
</svg>